<?xml version="1.0" encoding="UTF-8" standalone="no"?>
<svg
   xmlns:dc="http://purl.org/dc/elements/1.1/"
   xmlns:cc="http://creativecommons.org/ns#"
   xmlns:rdf="http://www.w3.org/1999/02/22-rdf-syntax-ns#"
   xmlns:svg="http://www.w3.org/2000/svg"
   xmlns="http://www.w3.org/2000/svg"
   xmlns:sodipodi="http://sodipodi.sourceforge.net/DTD/sodipodi-0.dtd"
   xmlns:inkscape="http://www.inkscape.org/namespaces/inkscape"
   width="38.4pt"
   height="38.4pt"
   version="1.1"
   id="svg7"
   sodipodi:docname="role.svg"
   inkscape:version="1.0.1 (0767f8302a, 2020-10-17)">
  <metadata
     id="metadata11">
    <rdf:RDF>
      <cc:Work
         rdf:about="">
        <dc:format>image/svg+xml</dc:format>
        <dc:type
           rdf:resource="http://purl.org/dc/dcmitype/StillImage" />
      </cc:Work>
    </rdf:RDF>
  </metadata>
  <sodipodi:namedview
     pagecolor="#ffffff"
     bordercolor="#666666"
     borderopacity="1"
     objecttolerance="10"
     gridtolerance="10"
     guidetolerance="10"
     inkscape:pageopacity="0"
     inkscape:pageshadow="2"
     inkscape:window-width="1366"
     inkscape:window-height="713"
     id="namedview9"
     showgrid="false"
     inkscape:zoom="8"
     inkscape:cx="15.861987"
     inkscape:cy="26.305535"
     inkscape:window-x="0"
     inkscape:window-y="0"
     inkscape:window-maximized="1"
     inkscape:current-layer="svg7" />
  <defs
     id="defs2" />
  <g
     id="layer0">
    <path
       id="shape0"
       transform="translate(0.5, 0.5)"
       fill="#000000"
       d="M23.7 47C10.6 47 0 36.5 0 23.5C0 10.5 10.6 0 23.7 0C36.8 0 47.4 10.5 47.4 23.5C47.4 36.5 36.8 47 23.7 47ZM23.7 3C12.3 3 3 12.2 3 23.5C3 34.8 12.3 44 23.7 44C35.1 44 44.4 34.8 44.4 23.5C44.4 12.2 35.1 3 23.7 3Z" />
    <path
       id="shape1"
       transform="translate(0.5, 22.5)"
       fill="#00897b"
       d="M23.7 25C10.6 25 0 14.5 0 1.5C0 0.7 0.7 0 1.5 0C2.3 0 3 0.7 3 1.5C3 12.8 12.3 22 23.7 22C24.5 22 25.2 22.7 25.2 23.5C25.2 24.3 24.5 25 23.7 25Z" />
  </g>
  <path
     style="fill:#00ff00;stroke-width:0.102605"
     d="M 22.419239,47.387433 C 17.581008,46.920788 13.524514,45.381533 9.8070168,42.601671 8.5449957,41.657959 6.2586758,39.371639 5.3149643,38.109619 2.6749937,34.579198 1.0966312,30.537007 0.66191528,26.193147 0.4195217,23.771051 0.60502879,23.027016 1.5403749,22.669804 c 0.4347905,-0.166048 0.4860631,-0.166048 0.9208535,0 0.7380779,0.281874 0.8954833,0.598586 0.9924691,1.996921 0.1315075,1.89607 0.2875212,2.943547 0.6509599,4.370551 1.8582693,7.296299 7.6299366,13.012533 15.0165886,14.872362 1.232216,0.31025 2.784825,0.533093 4.335631,0.622284 0.888256,0.05109 1.263256,0.115571 1.473278,0.253344 0.716173,0.469803 0.903451,1.452829 0.392472,2.060094 -0.152555,0.181301 -0.428106,0.39262 -0.612335,0.469595 -0.310763,0.129845 -1.354067,0.162851 -2.291053,0.07248 z"
     id="path13" />
  <path
     style="fill:#00ff00;stroke-width:0.102605"
     d="M 20.887778,47.141291 C 13.122886,45.966968 6.584644,41.297954 3.1347823,34.463727 1.6250952,31.473014 0.80438242,28.376563 0.70386919,25.292185 c -0.045781,-1.40485 -0.0300114,-1.631259 0.13517793,-1.940797 0.49955208,-0.936079 1.94753898,-0.920652 2.34005948,0.02493 0.074312,0.179018 0.1873872,0.925727 0.2512785,1.659354 0.4793041,5.503583 2.4233502,9.84818 6.0128739,13.437705 2.326233,2.326232 5.035012,3.988586 8.204838,5.035239 1.655791,0.546729 2.99553,0.808724 5.208708,1.018598 0.946072,0.08971 1.836023,0.215922 1.977671,0.280461 0.598977,0.272912 0.89152,1.308317 0.526885,1.86482 -0.369148,0.56339 -0.720074,0.67992 -2.018675,0.670329 -0.648978,-0.0048 -1.753687,-0.09548 -2.454908,-0.201533 z"
     id="path15" />
  <path
     style="fill:#00ff00;stroke-width:0.102605"
     d="M 21.447274,47.234676 C 17.752073,46.761201 14.06191,45.390472 11.024484,43.363079 4.9465071,39.306209 0.97076574,32.38649 0.69694356,25.388149 0.6562826,24.348937 0.67631091,23.779078 0.76269557,23.51733 0.99226144,22.821739 1.8292023,22.464255 2.5363807,22.759733 c 0.6683907,0.279271 0.6951581,0.365994 1.0033459,3.250689 0.4298028,4.023033 2.0113725,7.875721 4.4647775,10.876153 0.703028,0.859779 2.3771779,2.510984 3.2307669,3.186487 1.485484,1.175564 3.212524,2.1824 4.976353,2.901134 2.208069,0.899756 3.904295,1.296509 6.645181,1.554331 0.946072,0.08899 1.836023,0.214609 1.977671,0.279148 0.598977,0.272912 0.89152,1.308317 0.526885,1.86482 -0.370227,0.565037 -0.719414,0.680318 -2.018675,0.666448 -0.648978,-0.0069 -1.501913,-0.05385 -1.895412,-0.104267 z"
     id="path17" />
  <path
     style="fill:#00ff00;stroke-width:0.102605"
     d="M 21.447274,47.234676 C 17.747137,46.760569 14.080107,45.399373 11.024484,43.365751 4.920184,39.303132 0.92708952,32.311074 0.7028513,25.292185 0.6580065,23.888496 0.67399428,23.66067 0.83904712,23.351388 1.3385595,22.415384 2.7910322,22.430873 3.1768024,23.376318 c 0.073045,0.179018 0.2094845,1.08733 0.3031999,2.018473 0.2986008,2.966854 0.8782107,5.121037 2.0094451,7.468321 1.0147843,2.105653 2.0792386,3.625545 3.741945,5.342977 1.7164966,1.772991 3.4777716,3.067441 5.6463636,4.149797 2.58452,1.289947 4.588791,1.829373 8.08324,2.175512 0.890511,0.08821 1.73429,0.212857 1.875065,0.276999 0.597493,0.272235 0.88946,1.30832 0.5253,1.864098 -0.370227,0.565037 -0.719414,0.680318 -2.018675,0.666448 -0.648978,-0.0069 -1.501913,-0.05385 -1.895412,-0.104267 z"
     id="path19" />
  <path
     style="fill:#00ff00;stroke-width:0.102605"
     d="M 21.128144,47.194196 C 14.205404,46.183534 8.3072153,42.518953 4.5575082,36.898759 2.0678422,33.167159 0.57190082,28.420464 0.68433133,24.608978 c 0.0393955,-1.33554 0.17751563,-1.627207 0.88969317,-1.878759 0.3753766,-0.132589 0.4781778,-0.132589 0.8535543,0 0.7794469,0.275312 0.7946165,0.321283 1.1670611,3.536716 0.5556482,4.797088 2.6764057,9.106188 6.1156677,12.426233 1.6904564,1.631859 3.2027294,2.683168 5.3726594,3.734988 2.645717,1.282448 4.423597,1.754283 7.940465,2.107337 0.879106,0.08825 1.708307,0.225405 1.870808,0.309438 0.577157,0.298459 0.827436,1.277654 0.467121,1.827564 -0.373294,0.569719 -0.715171,0.680112 -2.069977,0.668403 -0.677195,-0.0058 -1.650652,-0.07187 -2.16324,-0.146702 z"
     id="path21" />
  <path
     style="fill:#00ff00;stroke-width:0.102605"
     d="M 20.828859,47.146947 C 13.4523,46.025659 7.2961044,41.818832 3.5959253,35.370847 1.8057281,32.251224 0.66659864,28.132777 0.66709334,24.781851 c 1.2146e-4,-0.822675 0.0429098,-1.165623 0.17955913,-1.439165 0.46462203,-0.93007 1.94286853,-0.908747 2.33160723,0.03363 0.073846,0.179018 0.2095714,1.041158 0.3016116,1.915867 0.1859482,1.767167 0.4700031,3.3148 0.8258525,4.499537 2.2842305,7.604942 8.6097932,13.146506 16.5231352,14.475235 0.338597,0.05685 1.326497,0.176375 2.195335,0.265601 0.868837,0.08923 1.7107,0.229971 1.870808,0.312766 0.576437,0.298087 0.826446,1.277609 0.466359,1.827171 -0.372776,0.568929 -0.715507,0.679916 -2.069977,0.670329 -0.677195,-0.0048 -1.785331,-0.09294 -2.462525,-0.195877 z"
     id="path23" />
  <path
     style="fill:#00ff00;stroke-width:0.102605"
     d="M 21.351802,47.239214 C 16.791934,46.629927 12.456407,44.7539 9.0636232,41.921997 4.4778633,38.094335 1.5685031,32.78675 0.7734858,26.798188 0.59890752,25.483156 0.63527019,23.765827 0.84665247,23.342686 1.3112783,22.412609 2.7890145,22.433922 3.1785232,23.376318 c 0.073991,0.179018 0.2124573,1.055904 0.3077031,1.948637 0.4755206,4.457024 1.7000323,7.73682 4.0755117,10.916062 1.9439677,2.601725 4.573977,4.76564 7.521229,6.188308 2.396854,1.156984 4.365015,1.692219 7.541483,2.050879 2.288342,0.25838 2.310865,0.263544 2.566405,0.58841 0.510303,0.648746 0.451784,1.420062 -0.149909,1.975877 -0.264641,0.244463 -0.341179,0.257284 -1.629256,0.272941 -0.743362,0.009 -1.670312,-0.02616 -2.059888,-0.07822 z"
     id="path25" />
  <path
     style="fill:#00ff00;stroke-width:0.0181382"
     d="M 1.9819359,32.176792 C 1.2449659,30.201417 0.78497628,28.166775 0.5989864,26.05968 0.54721121,25.473115 0.53270197,25.183327 0.52174933,24.517049 0.5093244,23.761208 0.51755453,23.687269 0.64449016,23.41434 0.84565891,22.9818 1.1949995,22.685041 1.6559835,22.555094 c 0.1890621,-0.0533 0.4970806,-0.05323 0.6944438,1.56e-4 0.464847,0.12573 0.874363,0.495167 1.0422455,0.940242 0.073608,0.195145 0.098072,0.362732 0.098514,0.674875 2.213e-4,0.156245 0.0082,0.451407 0.017722,0.655915 0.045379,0.97425 0.039773,0.994713 -0.027329,0.09976 -0.086215,-1.149861 -0.1521687,-1.50104 -0.335585,-1.78687 C 3.0081301,22.92433 2.7292772,22.746244 2.3102086,22.605407 2.0721307,22.525397 1.957054,22.521737 1.7487196,22.58755 1.0055668,22.822311 0.71765716,23.1616 0.5954891,23.946579 c -0.041566,0.267078 -0.0416321,1.088807 -1.2841e-4,1.596162 0.16363118,2.000279 0.47512601,3.630763 1.03956051,5.441464 0.1473655,0.472747 0.4116253,1.217994 0.5772446,1.627904 0.00953,0.02358 0.00398,0.03174 -0.021578,0.03174 -0.028376,0 -0.064927,-0.08182 -0.2086523,-0.467059 z"
     id="path27" />
  <path
     style="fill:#00ff00;stroke-width:0.0181382"
     d="M 2.1073703,32.285621 C 1.3556781,30.310516 0.88330881,28.300706 0.67176832,26.177504 c -0.0757836,-0.760629 -0.0897977,-0.995767 -0.0902616,-1.514466 -6.0805e-4,-0.679887 0.0512122,-1.010744 0.2102251,-1.342227 0.0602999,-0.125704 0.10281025,-0.182863 0.23019428,-0.309519 0.1792751,-0.17825 0.3515233,-0.277032 0.6747676,-0.386971 0.3006695,-0.10226 0.423987,-0.08872 0.8509038,0.0934 0.3427124,0.146199 0.5135065,0.290531 0.6357424,0.537241 0.1460527,0.294779 0.2014225,0.621784 0.2798828,1.652945 0.052342,0.687908 0.098188,1.133469 0.1651671,1.605232 0.309433,2.17946 0.8646646,4.163363 1.6409173,5.863176 l 0.1221766,0.267539 H 3.8175953 2.2437066 Z"
     id="path29" />
  <path
     style="fill:#00ff00;stroke-width:0.0181382"
     d="M 2.1070894,32.285621 C 1.3480735,30.295374 0.87271147,28.258199 0.66277032,26.095957 0.5949295,25.397245 0.58178289,25.161573 0.58233145,24.653969 c 7.5262e-4,-0.696417 0.0473659,-0.992595 0.2098162,-1.333158 0.0601844,-0.126172 0.10191957,-0.182391 0.22977845,-0.309519 0.1792751,-0.17825 0.3515233,-0.277032 0.6747676,-0.386971 0.296048,-0.100688 0.4154557,-0.0892 0.8191895,0.07883 0.3762178,0.156578 0.544837,0.299144 0.6752424,0.570911 0.1428567,0.297717 0.1928897,0.596556 0.2720262,1.624771 0.09449,1.2277 0.2083717,2.05394 0.438752,3.183256 0.3190858,1.564145 0.8147026,3.106465 1.40907,4.384912 l 0.082219,0.176848 H 3.8184496 2.2437066 Z"
     id="path31" />
  <path
     style="fill:#00ff00;stroke-width:0.0181382"
     d="M 2.1577457,32.421658 C 1.4700539,30.659428 0.98105362,28.7253 0.74416176,26.830554 0.62976063,25.915533 0.58342273,25.304088 0.58195998,24.690245 c -0.001693,-0.710489 0.0476178,-1.03425 0.20821957,-1.367109 0.0616628,-0.127801 0.10416118,-0.184988 0.23174655,-0.311844 0.1800733,-0.179044 0.360214,-0.282297 0.67808,-0.388661 0.294383,-0.09851 0.414105,-0.08669 0.8158771,0.08052 0.3503299,0.145803 0.5320506,0.290407 0.6516239,0.518528 0.1626901,0.310379 0.2140205,0.600826 0.2964018,1.677154 0.075395,0.985057 0.1684842,1.73366 0.3191514,2.566557 0.3260675,1.802519 0.8092437,3.405311 1.4640371,4.856506 l 0.1452684,0.321953 H 3.81841 2.2444542 Z"
     id="path33" />
  <path
     style="fill:#00ff00;stroke-width:0.0181382"
     d="m 2.2121562,32.566763 c -0.9034725,-2.244444 -1.49074358,-4.93423 -1.62476586,-7.44166 -0.0584687,-1.093895 0.0615864,-1.724234 0.39589649,-2.07862 0.18939277,-0.200767 0.37114247,-0.308215 0.71724687,-0.424029 0.2542333,-0.08507 0.3551708,-0.08479 0.608281,0.0017 0.3863268,0.132004 0.6455414,0.286061 0.7726329,0.459194 0.2217796,0.302124 0.2903866,0.626247 0.3823649,1.806424 0.073234,0.939667 0.14009,1.502583 0.2735863,2.303553 0.3109553,1.865712 0.8198974,3.591188 1.5180627,5.146717 l 0.1363607,0.303815 H 3.8175044 2.2431868 Z"
     id="path35" />
  <path
     style="fill:#00ff00;stroke-width:0.0128257"
     d="M 3.9404416,36.200507 C 3.3950475,35.308907 2.9246872,34.412909 2.4995569,33.455738 2.3775242,33.180984 2.1611881,32.663026 2.1611881,32.645606 c 0,-0.0052 0.015984,-0.007 0.035519,-0.0042 0.031415,0.0046 0.040546,0.01806 0.07903,0.116416 0.3003214,0.767544 0.8572959,1.915631 1.3549255,2.792896 0.1355443,0.238949 0.4263845,0.728345 0.4699912,0.790852 l 0.024606,0.03527 h -0.038471 c -0.035649,0 -0.046385,-0.01294 -0.1463467,-0.176353 z"
     id="path37" />
  <path
     style="fill:#00ff00;stroke-width:0.0128257"
     d="M 7.5071554,36.155105 C 6.507122,34.795484 5.7558203,33.490374 5.1208196,32.009725 4.9784601,31.677782 4.8394454,31.324052 4.8449098,31.307659 c 0.00224,-0.0067 0.038043,0.07345 0.079555,0.178183 0.3993849,1.007574 0.9385024,2.090894 1.5053429,3.024885 0.3791375,0.62471 0.7828079,1.216973 1.243495,1.824449 0.021395,0.02821 0.025938,0.04158 0.014057,0.04137 -0.00965,-1.71e-4 -0.090747,-0.09982 -0.1802045,-0.221445 z"
     id="path39" />
  <path
     style="fill:#00ff00;stroke-width:0.0128257"
     d="m 4.7327313,31.028563 c -0.00482,-0.01517 -0.00587,-0.03047 -0.00234,-0.034 0.00353,-0.0035 0.010353,0.006 0.015168,0.02117 0.00482,0.01517 0.00587,0.03047 0.00234,0.034 -0.00353,0.0035 -0.010352,-0.006 -0.015168,-0.02117 z"
     id="path41" />
  <path
     style="fill:#00ff00;stroke-width:0.0128257"
     d="M 4.0302211,36.200507 C 3.2529225,34.929794 2.5524699,33.495652 2.0491654,32.144394 1.3883525,30.370262 0.9302871,28.477387 0.71921431,26.648603 0.7013027,26.493412 0.68403269,26.347681 0.6808365,26.324755 l -0.005811,-0.04168 h 1.4610734 1.4610736 l 0.00611,0.02886 c 0.00336,0.01587 0.021052,0.135631 0.039318,0.266133 0.2222541,1.587879 0.6340671,3.251411 1.1414242,4.610821 0.6569508,1.760231 1.5784309,3.449012 2.7114769,4.969278 0.081761,0.109703 0.1505803,0.203789 0.1529316,0.209079 0.00235,0.0053 -0.7865116,0.0096 -1.7530288,0.0096 h -1.757304 z"
     id="path43" />
  <path
     style="fill:#00ff00;stroke-width:0.0128257"
     d="m 4.7776211,31.150406 c -0.00846,-0.02563 -0.012496,-0.04949 -0.00897,-0.05302 0.00353,-0.0035 0.013335,0.01456 0.021795,0.0402 0.00846,0.02563 0.012496,0.04949 0.00897,0.05302 -0.00353,0.0035 -0.013335,-0.01456 -0.021795,-0.0402 z"
     id="path45" />
  <path
     style="fill:#00ff00;stroke-width:0.0128257"
     d="m 4.8160981,31.253012 c -0.00846,-0.02563 -0.012496,-0.04949 -0.00897,-0.05302 0.00353,-0.0035 0.013335,0.01456 0.021795,0.0402 0.00846,0.02563 0.012496,0.04949 0.00897,0.05302 -0.00353,0.0035 -0.013335,-0.01456 -0.021795,-0.0402 z"
     id="path47" />
  <path
     style="fill:#00ff00;stroke-width:0.0128257"
     d="M 7.7182331,40.887553 C 6.4217787,39.649353 5.1887149,38.153575 4.2169048,36.64024 4.0445989,36.371919 4.0501948,36.383591 4.0942039,36.384311 c 0.031461,5.15e-4 0.046332,0.01772 0.124683,0.144289 0.2836144,0.458138 0.8698028,1.303155 1.1851408,1.708433 0.5373777,0.690648 1.3741004,1.597837 2.4102454,2.613227 l 0.2977476,0.291784 h -0.063662 -0.063662 z"
     id="path49" />
  <path
     style="fill:#00ff00;stroke-width:0.0128257"
     d="M 12.519089,40.941969 C 11.860284,40.495958 11.22162,40.008143 10.60688,39.481414 9.8694676,38.849575 9.0484613,38.029171 8.4117919,37.287935 8.0729917,36.893491 7.6810335,36.400132 7.6953935,36.386203 c 0.00504,-0.0049 0.024431,0.01097 0.04309,0.03525 0.3078369,0.400474 0.7240711,0.894641 1.1295445,1.341034 0.2226782,0.245151 0.9758859,1.002289 1.219663,1.226027 0.795016,0.729665 1.611284,1.375247 2.494212,1.972659 0.147025,0.09948 0.259144,0.18061 0.249153,0.180289 -0.01,-3.22e-4 -0.150375,-0.09009 -0.311967,-0.19949 z"
     id="path51" />
  <path
     style="fill:#00ff00;stroke-width:0.0128257"
     d=""
     id="path53" />
  <path
     style="fill:#00ff00;stroke-width:0.0128257"
     d="M 17.156971,46.44072 C 16.140686,46.124678 15.167953,45.753247 14.219897,45.319219 13.951378,45.196289 13.137499,44.78938 12.860378,44.639511 11.375506,43.83648 9.9673071,42.86618 8.66639,41.749702 8.4673369,41.57887 8.0058689,41.164654 8.0058689,41.156815 c 0,-0.0027 0.027415,-0.0048 0.060922,-0.0045 0.06038,4.91e-4 0.062576,0.002 0.2468938,0.175049 0.5603954,0.525988 1.0826411,0.973176 1.5198397,1.301407 1.5033256,1.128634 3.2251636,2.13085 4.8929856,2.848016 0.908237,0.390544 1.760961,0.695506 2.821644,1.009115 l 0.173146,0.05119 -0.128256,-3.23e-4 c -0.12309,-3.1e-4 -0.140658,-0.0042 -0.436073,-0.09605 z"
     id="path55" />
  <path
     style="fill:#00ff00;stroke-width:0.0128257"
     d=""
     id="path57" />
  <path
     style="fill:#00ff00;stroke-width:0.0128257"
     d=""
     id="path59" />
  <path
     style="fill:#00ff00;stroke-width:0.0128257"
     d=""
     id="path61" />
  <path
     style="fill:#00ff00;stroke-width:0.0128257"
     d=""
     id="path63" />
  <path
     style="fill:#00ff00;stroke-width:0.0128257"
     d=""
     id="path65" />
  <path
     style="fill:#00ff00;stroke-width:0.0128257"
     d="m 13.868027,41.781973 c -0.291298,-0.166689 -0.500492,-0.292422 -0.800408,-0.481074 -0.258987,-0.162907 -0.236998,-0.147843 -0.228382,-0.156459 0.0037,-0.0037 0.110008,0.05874 0.236206,0.1388 0.284326,0.180367 0.550304,0.340191 0.825844,0.496244 0.217645,0.123264 0.245991,0.14125 0.222612,0.14125 -0.0074,0 -0.122501,-0.06244 -0.255872,-0.138761 z"
     id="path69" />
  <path
     style="fill:#00ff00;stroke-width:0.0128257"
     d="m 14.275423,42.009164 c -0.07992,-0.04282 -0.142435,-0.08072 -0.138931,-0.08422 0.0065,-0.0065 0.303472,0.147363 0.303472,0.157181 0,0.01268 -0.02734,5.55e-4 -0.164541,-0.07296 z"
     id="path71" />
  <path
     style="fill:#00ff00;stroke-width:0.0128257"
     d="m 14.576509,42.169378 c -0.06245,-0.03183 -0.110672,-0.06076 -0.107149,-0.06428 0.0069,-0.0069 0.239943,0.106829 0.239943,0.117167 0,0.01245 -0.02102,0.0041 -0.132794,-0.05289 z"
     id="path73" />
  <path
     style="fill:#00ff00;stroke-width:0.0128257"
     d=""
     id="path75" />
  <path
     style="fill:#00ff00;stroke-width:0.0128257"
     d=""
     id="path77" />
  <path
     style="fill:#00ff00;stroke-width:0.0128257"
     d="m 23.472018,47.483542 c -0.691464,-0.02797 -1.073491,-0.05244 -1.590381,-0.101892 -1.376079,-0.131643 -2.732368,-0.3821 -4.078557,-0.753162 l -0.288577,-0.07954 0.117918,-0.0037 c 0.104892,-0.0033 0.138896,0.0021 0.307816,0.04864 1.292115,0.355976 2.930661,0.649355 4.435188,0.794114 0.691005,0.06649 1.496185,0.07185 1.962325,0.01307 0.35086,-0.04424 0.517273,-0.120885 0.812251,-0.374084 0.208231,-0.178738 0.361313,-0.416415 0.427687,-0.664033 0.02546,-0.09498 0.02914,-0.138754 0.02857,-0.33988 -5.85e-4,-0.207941 -0.004,-0.243388 -0.03453,-0.35703 -0.03839,-0.142967 -0.133267,-0.350797 -0.215432,-0.471894 -0.123348,-0.181792 -0.375958,-0.406344 -0.532702,-0.473533 -0.223259,-0.0957 -0.541323,-0.140245 -1.415711,-0.19827 -0.271583,-0.01802 -0.586132,-0.04087 -0.698998,-0.05077 -0.444472,-0.03898 -0.550478,-0.04992 -0.53473,-0.05517 0.009,-0.003 0.127242,0.0037 0.262732,0.01484 0.547868,0.04514 1.118422,0.07177 1.541737,0.07194 0.148137,6.1e-5 0.321283,0.0065 0.38477,0.01426 0.324499,0.03977 0.634499,0.194594 0.875299,0.437162 0.139097,0.140119 0.221497,0.255195 0.30588,0.427178 0.09145,0.186383 0.133952,0.351063 0.142811,0.553323 0.0085,0.193045 -0.0099,0.327822 -0.06866,0.504793 -0.09575,0.288254 -0.27134,0.536714 -0.511442,0.723684 -0.188922,0.147116 -0.346639,0.226514 -0.570093,0.286995 -0.119273,0.03228 -0.133616,0.0332 -0.545739,0.03499 -0.232785,10e-4 -0.466533,9e-5 -0.519439,-0.0021 z"
     id="path79" />
  <path
     style="fill:#00ff00;stroke-width:0.0128257"
     d=""
     id="path81" />
  <path
     style="fill:#00ff00;stroke-width:0.0128257"
     d=""
     id="path83" />
  <path
     style="fill:#00ff00;stroke-width:0.0128257"
     d=""
     id="path85" />
  <path
     style="fill:#00ff00;stroke-width:0.00390625"
     d="m 22.061101,44.411323 c -0.208019,-0.0267 -0.462887,-0.06104 -0.623047,-0.08394 -2.280943,-0.326195 -3.940038,-0.795728 -5.806641,-1.643312 -0.08428,-0.03827 -0.338332,-0.15698 -0.399414,-0.186634 -0.01177,-0.0057 -0.01465,-0.0093 -0.01465,-0.01811 0,-0.006 7.82e-4,-0.011 0.0017,-0.011 9.56e-4,0 0.06119,0.02794 0.133853,0.06208 1.224123,0.575246 2.480962,1.023461 3.784331,1.349572 0.997858,0.24967 1.947549,0.413863 3.031129,0.524054 0.124615,0.01267 0.126856,0.01304 0.06555,0.01086 -0.04347,-0.0015 -0.06348,-9.56e-4 -0.06348,0.0019 0,0.0023 0.004,0.0049 0.0088,0.0058 0.03026,0.0058 -0.02871,1.96e-4 -0.118164,-0.01129 z"
     id="path87" />
  <path
     style="fill:#00ff00;stroke-width:0.00390625"
     d="M 15.096362,42.43209 C 14.911579,42.3426 14.671685,42.222212 14.6823,42.224306 c 0.0054,0.0011 0.014,0.0031 0.01917,0.0045 0.0082,0.0023 0.0091,0.0015 0.0072,-0.0058 -0.0012,-0.0046 -0.0015,-0.0084 -7.31e-4,-0.0084 8.1e-4,0 0.09601,0.0472 0.211548,0.104886 0.115542,0.05769 0.229851,0.114212 0.254021,0.125611 0.04083,0.01926 0.04395,0.02151 0.04395,0.03183 0,0.0061 -0.0013,0.01108 -0.0029,0.01105 -0.0016,-3e-5 -0.05478,-0.02517 -0.118164,-0.05587 z"
     id="path89" />
  <path
     style="fill:#00ff00;stroke-width:0.00390625"
     d="m 14.501342,42.114183 c -0.03278,-0.01459 -0.04311,-0.01411 -0.02412,0.0011 0.0064,0.0052 0.01035,0.0094 0.0087,0.0094 -0.0053,3.4e-5 -0.108785,-0.05548 -0.106928,-0.05733 9.72e-4,-9.72e-4 0.01029,0.0025 0.02071,0.0077 0.01042,0.0052 0.02401,0.01069 0.03019,0.01218 0.01,0.0024 0.01102,0.0018 0.0092,-0.0053 -0.0012,-0.0044 -0.0011,-0.008 1.27e-4,-0.008 0.0022,0 0.09906,0.05047 0.102189,0.05324 0.0056,0.005 -0.01383,-0.0014 -0.04001,-0.01301 z"
     id="path91" />
  <path
     style="fill:#00ff00;stroke-width:0.00390625"
     d=""
     id="path93" />
  <path
     style="fill:#00ff00;stroke-width:0.00390625"
     d=""
     id="path95" />
  <path
     style="fill:#00ff00;stroke-width:0.00390625"
     d="m 14.19611,41.948285 c -0.03694,-0.01888 -0.06068,-0.02774 -0.06068,-0.02266 0,0.002 0.0071,0.0084 0.0157,0.01407 0.03027,0.02003 0.0119,0.01351 -0.03503,-0.01244 -0.0487,-0.02692 -0.06254,-0.03898 -0.02024,-0.01763 0.02388,0.01206 0.03566,0.01488 0.03566,0.0085 0,-0.0019 -0.0027,-0.0057 -0.006,-0.0084 -0.0033,-0.0027 -0.0051,-0.0058 -0.0041,-0.0068 0.0019,-0.0019 0.111617,0.05704 0.111617,0.05996 0,0.0034 -0.0069,6.59e-4 -0.03697,-0.01469 z"
     id="path97" />
</svg>
